<?xml version="1.0" encoding="UTF-8"?>
<svg width="311px" height="82px" viewBox="0 0 311 82" version="1.1" xmlns="http://www.w3.org/2000/svg" xmlns:xlink="http://www.w3.org/1999/xlink">
    <title>CKEditor 5 logo</title>
    <g id="Page-1" stroke="none" stroke-width="1" fill="none" fill-rule="evenodd">
        <g id="logo" fill="#2D3A4A">
            <path d="M59.2576769,11.4756855 C58.2248461,13.6254036 57.6907121,15.9759179 57.694259,18.3556755 C57.694259,27.2175882 64.9639519,34.4023878 73.9305741,34.4023878 L74,34.4023878 L74,57.5415333 C73.9999273,60.3699812 72.4731099,62.9835479 69.9946595,64.3977718 L41.0053405,80.9393051 C38.5268272,82.353565 35.4731728,82.353565 32.9946595,80.9393051 L4.00534045,64.3977718 C1.52689012,62.9835479 7.27028093e-05,60.3699812 0,57.5415333 L0,24.4584667 C7.27028093e-05,21.6300188 1.52689012,19.0164521 4.00534045,17.6022282 L32.9946595,1.06069491 C35.4731728,-0.353564971 38.5268272,-0.353564971 41.0053405,1.06069491 L59.2576769,11.4756855 Z M20.9786382,26.4852532 C19.872594,26.4852532 18.975968,27.3714087 18.975968,28.4645369 L18.975968,29.2648272 C18.975968,30.3579554 19.872594,31.2441109 20.9786382,31.2441109 L53.6889186,31.2441109 C54.7949628,31.2441109 55.6915888,30.3579554 55.6915888,29.2648272 L55.6915888,28.4645369 C55.6915888,27.3714087 54.7949628,26.4852532 53.6889186,26.4852532 L20.9786382,26.4852532 Z M20.9786382,38.3174109 C19.872594,38.3174109 18.975968,39.2035664 18.975968,40.2966945 L18.975968,41.0976447 C18.975968,42.1907728 19.872594,43.0769283 20.9786382,43.0769283 L44.6602136,43.0769283 C45.7662578,43.0769283 46.6628838,42.1907728 46.6628838,41.0976447 L46.6628838,40.2966945 C46.6628838,39.2035664 45.7662578,38.3174109 44.6602136,38.3174109 L20.9786382,38.3174109 Z M20.9786382,50.1502283 C19.872594,50.1502283 18.975968,51.0363838 18.975968,52.129512 L18.975968,52.9298023 C18.975968,54.0229305 19.872594,54.909086 20.9786382,54.909086 L53.6889186,54.909086 C54.7949628,54.909086 55.6915888,54.0229305 55.6915888,52.9298023 L55.6915888,52.129512 C55.6915888,51.0363838 54.7949628,50.1502283 53.6889186,50.1502283 L20.9786382,50.1502283 Z M73.5,32 C66.0440488,32 60,25.9559512 60,18.5 C60,11.0440488 66.0440488,5 73.5,5 C80.9559512,5 87,11.0440488 87,18.5 C87,25.9559512 80.9559512,32 73.5,32 Z M78.1492683,20.7120244 C78.1492683,20.0969512 78.0392927,19.5582683 77.82,19.0972927 C77.6100128,18.648511 77.3032554,18.2517954 76.9217561,17.9356341 C76.5261101,17.6138977 76.0693155,17.3757552 75.579,17.2356098 C75.0438789,17.0792151 74.488837,17.0015714 73.9313415,17.005122 C73.7555122,17.005122 73.5605854,17.0130244 73.346561,17.0294878 C73.1494374,17.0433883 72.9538258,17.0737874 72.7617805,17.1203659 L72.860561,15.2751463 L77.5559268,15.2751463 L77.5559268,12.902439 L70.4055366,12.902439 L70.1256585,19.5747317 C70.5887159,19.4091809 71.0656353,19.2853228 71.5507317,19.2046341 C72.0834878,19.111122 72.5582927,19.0643659 72.9758049,19.0643659 C73.2616098,19.0643659 73.5474146,19.0920244 73.832561,19.1466829 C74.1183659,19.2013415 74.373878,19.2981463 74.5990976,19.435122 C74.8236585,19.5720976 75.0073902,19.7564878 75.1509512,19.9869756 C75.2931951,20.2174634 75.3649756,20.5032683 75.3649756,20.8430732 C75.3649756,21.4041463 75.1917805,21.8269268 74.8460488,22.1120732 C74.4996585,22.397878 74.0907073,22.540122 73.6185366,22.540122 C73.157561,22.540122 72.7591463,22.4084146 72.4239512,22.145 C72.0954632,21.8908304 71.8561198,21.5389632 71.7403902,21.1400732 L69.2195122,21.9145122 C69.3512195,22.3754878 69.5573415,22.7903659 69.8372195,23.1584878 C70.1155179,23.5249359 70.4555874,23.8400461 70.8421463,24.0896585 C71.232,24.341878 71.6659756,24.5374634 72.1440732,24.674439 C72.6344133,24.813286 73.1418504,24.8824517 73.6514634,24.8799024 C74.2224146,24.8799024 74.777561,24.7949512 75.3155854,24.6250488 C75.8398637,24.4620722 76.3288571,24.2020502 76.757122,23.8585122 C77.1874841,23.5086677 77.5338272,23.0666808 77.7706098,22.5651463 C78.0228293,22.0435854 78.1492683,21.425878 78.1492683,20.7120244 Z" id="Combined-Shape" fill="#32B968" fill-rule="nonzero"></path>
        </g>
    </g>
</svg>